<svg id="eQuiaXno1xk1" xmlns="http://www.w3.org/2000/svg" xmlns:xlink="http://www.w3.org/1999/xlink" viewBox="0 0 700 400" shape-rendering="geometricPrecision" text-rendering="geometricPrecision" width="700" height="400" style="background-color:rgb(42,53,77)"><style><![CDATA[#eQuiaXno1xk18_ts {animation: eQuiaXno1xk18_ts__ts 1500ms linear infinite normal forwards}@keyframes eQuiaXno1xk18_ts__ts { 0% {transform: translate(413.025454px,290px) scale(1,1)} 33.333333% {transform: translate(413.025454px,290px) scale(1.135973,1.135973);animation-timing-function: cubic-bezier(0.42,0,1,1)} 46.666667% {transform: translate(413.025454px,290px) scale(0.821601,0.831288)} 53.333333% {transform: translate(413.025454px,290px) scale(1,1)} 100% {transform: translate(413.025454px,290px) scale(1,1)}} #eQuiaXno1xk19 {animation-name: eQuiaXno1xk19__m, eQuiaXno1xk19_c_o;animation-duration: 1500ms;animation-fill-mode: forwards;animation-timing-function: linear;animation-direction: normal;animation-iteration-count: infinite;}@keyframes eQuiaXno1xk19__m { 0% {d: path('M41.930888,25.556325C21.671249,4.208457,-4.729244,43.174849,41.930888,64.289641C88.563234,43.162421,62.131106,4.207356,41.930888,25.556325Z')} 33.333333% {d: path('M41.930888,25.556325C21.671249,4.208457,-4.729244,43.174849,41.930888,64.289641C88.563234,43.162421,62.131106,4.207356,41.930888,25.556325Z');animation-timing-function: cubic-bezier(0.42,0,1,1)} 80% {d: path('M41.937794,16.366324C5.673539,16.919509,5.516475,69.487964,41.939154,69.273489C78.464398,69.375308,78.406936,16.07606,41.937794,16.366324Z')} 100% {d: path('M41.937794,16.366324C5.673539,16.919509,5.516475,69.487964,41.939154,69.273489C78.464398,69.375308,78.406936,16.07606,41.937794,16.366324Z')}}@keyframes eQuiaXno1xk19_c_o { 0% {opacity: 0;animation-timing-function: step-end} 33.333333% {opacity: 0.3} 60% {opacity: 0;animation-timing-function: step-end} 100% {opacity: 0}} #eQuiaXno1xk19_ts {animation: eQuiaXno1xk19_ts__ts 1500ms linear infinite normal forwards}@keyframes eQuiaXno1xk19_ts__ts { 0% {transform: translate(413.025454px,290px) scale(1.079147,1.104767)} 33.333333% {transform: translate(413.025454px,290px) scale(1.079147,1.104767);animation-timing-function: cubic-bezier(0.42,0,1,1)} 60% {transform: translate(413.025454px,290px) scale(1.8,1.8)} 100% {transform: translate(413.025454px,290px) scale(1.8,1.8)}} #eQuiaXno1xk20 {animation: eQuiaXno1xk20__m 1500ms linear infinite normal forwards}@keyframes eQuiaXno1xk20__m { 0% {d: path('M41.953296,26.681249C21.418562,7.726704,-4.499952,40.816971,41.953296,65.262378C88.406543,40.816971,62.488029,7.726704,41.953296,26.681249Z')} 33.333333% {d: path('M41.930888,25.556325C21.671249,4.208457,-4.729244,43.174849,41.930888,64.289641C88.563234,43.162421,62.131106,4.207356,41.930888,25.556325Z')} 44.666667% {d: path('M41.922314,31.132858C21.479279,11.380538,6.19243,42.042338,41.945826,64.938132C77.66045,42.025495,62.345543,11.380171,41.922314,31.132858Z')} 53.333333% {d: path('M41.953296,26.681249C21.418562,7.726704,-4.499952,40.816971,41.953296,65.262378C88.406543,40.816971,62.488029,7.726704,41.953296,26.681249Z')} 60% {d: path('M41.930888,25.556325C21.671249,4.208457,-7.069818,44.075803,41.927841,66.162378C90.877497,44.038714,62.131106,4.207356,41.930888,25.556325Z')} 66.666667% {d: path('M41.953296,26.681249C21.418562,7.726704,-4.499952,40.816971,41.953296,65.262378C88.406543,40.816971,62.488029,7.726704,41.953296,26.681249Z')} 100% {d: path('M41.953296,26.681249C21.418562,7.726704,-4.499952,40.816971,41.953296,65.262378C88.406543,40.816971,62.488029,7.726704,41.953296,26.681249Z')}} #eQuiaXno1xk20_ts {animation: eQuiaXno1xk20_ts__ts 1500ms linear infinite normal forwards}@keyframes eQuiaXno1xk20_ts__ts { 0% {transform: translate(413.025454px,290px) scale(1,1)} 8.666667% {transform: translate(413.025454px,290px) scale(0.97,0.97)} 33.333333% {transform: translate(413.025454px,290px) scale(1.135973,1.135973);animation-timing-function: cubic-bezier(0.42,0,1,1)} 46.666667% {transform: translate(413.025454px,290px) scale(0.821601,0.831288)} 53.333333% {transform: translate(413.025454px,290px) scale(1,1)} 100% {transform: translate(413.025454px,290px) scale(1,1)}} #eQuiaXno1xk21 {animation: eQuiaXno1xk21__m 1500ms linear infinite normal forwards}@keyframes eQuiaXno1xk21__m { 0% {d: path('M41.953296,26.681249C21.418562,7.726704,-4.499952,40.816971,41.953296,65.262378C88.406543,40.816971,62.488029,7.726704,41.953296,26.681249Z')} 33.333333% {d: path('M41.930888,25.556325C21.671249,4.208457,-4.729244,43.174849,41.930888,64.289641C88.563234,43.162421,62.131106,4.207356,41.930888,25.556325Z')} 44.666667% {d: path('M41.922314,31.132858C21.479279,11.380538,6.19243,42.042338,41.945826,64.938132C77.66045,42.025495,62.345543,11.380171,41.922314,31.132858Z')} 53.333333% {d: path('M41.953296,26.681249C21.418562,7.726704,-4.499952,40.816971,41.953296,65.262378C88.406543,40.816971,62.488029,7.726704,41.953296,26.681249Z')} 60% {d: path('M41.930888,25.556325C21.671249,4.208457,-7.069818,44.075803,41.927841,66.162378C90.877497,44.038714,62.131106,4.207356,41.930888,25.556325Z')} 66.666667% {d: path('M41.953296,26.681249C21.418562,7.726704,-4.499952,40.816971,41.953296,65.262378C88.406543,40.816971,62.488029,7.726704,41.953296,26.681249Z')} 100% {d: path('M41.953296,26.681249C21.418562,7.726704,-4.499952,40.816971,41.953296,65.262378C88.406543,40.816971,62.488029,7.726704,41.953296,26.681249Z')}} #eQuiaXno1xk21_ts {animation: eQuiaXno1xk21_ts__ts 1500ms linear infinite normal forwards}@keyframes eQuiaXno1xk21_ts__ts { 0% {transform: translate(413.025454px,290px) scale(1,1)} 8.666667% {transform: translate(413.025454px,290px) scale(0.97,0.95)} 33.333333% {transform: translate(413.025454px,290px) scale(1.135973,1.135973);animation-timing-function: cubic-bezier(0.42,0,1,1)} 46.666667% {transform: translate(413.025454px,290px) scale(0.821601,0.831288)} 53.333333% {transform: translate(413.025454px,290px) scale(1,1)} 100% {transform: translate(413.025454px,290px) scale(1,1)}} #eQuiaXno1xk22 {animation: eQuiaXno1xk22_s_do 1500ms linear infinite normal forwards}@keyframes eQuiaXno1xk22_s_do { 0% {stroke-dashoffset: 105.51} 33.333333% {stroke-dashoffset: 105.51} 53.333333% {stroke-dashoffset: 0} 73.333333% {stroke-dashoffset: -105.51} 100% {stroke-dashoffset: -105.51}}]]></style><defs><clipPath id="eQuiaXno1xk2"><rect id="eQuiaXno1xk3" width="27" height="64" rx="0" ry="0" transform="matrix(1 0 0 1 270.04 252)" stroke="none" stroke-width="1"/></clipPath><clipPath id="eQuiaXno1xk4"><rect id="eQuiaXno1xk5" width="27" height="64" rx="0" ry="0" transform="matrix(1 0 0 1 223.04 252)" stroke="none" stroke-width="1"/></clipPath><clipPath id="eQuiaXno1xk6"><circle id="eQuiaXno1xk7" r="22.15" transform="matrix(1 0 0 1 413.04 145)" stroke="none" stroke-width="1"/></clipPath><clipPath id="eQuiaXno1xk8"><circle id="eQuiaXno1xk9" r="17" transform="matrix(1 0 0 1 107.04 296)" stroke="none" stroke-width="1"/></clipPath><clipPath id="eQuiaXno1xk10"><path id="eQuiaXno1xk11" d="M706,349C703.46,352,692.52,359.13,686,360L689,387C693,394,706,403,706,403C706,403,719,394,723,387L726,360C719.52,359.13,708.58,352,706,349Z" stroke="none" stroke-width="1"/></clipPath><clipPath id="eQuiaXno1xk12"><path id="eQuiaXno1xk13" d="M246.1,415.07C244,413.16,242,411,242,408C242,404.3,245,401.77,247.69,399.54C249.036288,398.545593,250.223237,397.3519,251.21,396C251.646018,395.159023,251.959205,394.259875,252.14,393.33C253.308064,393.002216,254.493163,392.73849,255.69,392.54L256.41,392.41C256.145052,394.357164,255.556973,396.246453,254.67,398C253.46917,399.773687,251.974367,401.329365,250.25,402.6C248.16,404.35,246,406.17,246,408C246.124036,409.105988,246.650868,410.127615,247.48,410.87C247.24,411.66,246.96,412.47,246.67,413.27C246.51,413.86,246.3,414.46,246.1,415.07ZM280.5,383.69C281,384.27,281.5,384.86,281.99,385.4C282.983397,385.060263,284.065779,385.088653,285.04,385.48C286.52,386.33,287.04,389.06,287.5,391.69C287.765476,393.883233,288.397611,396.016264,289.37,398C290.433997,399.61461,291.766582,401.035132,293.31,402.2C293.4,401.94,293.5,401.67,293.59,401.4C293.999721,400.306329,294.350229,399.19138,294.64,398.06C293.941874,397.4628,293.332414,396.769161,292.83,396C292.115316,394.412941,291.643372,392.727426,291.43,391C290.82,387.63,290.12,383.82,287.05,382C284.62,380.59,281.79,381.17,279.11,382C279.59,382.6,280.05,383.15,280.5,383.69ZM255,388.61C255.79,388.46,256.6,388.31,257.35,388.14C257.563995,387.079483,258.157845,386.13359,259.02,385.48C259.441153,385.257158,259.913938,385.150177,260.39,385.17C262.1109,385.346468,263.795994,385.777852,265.39,386.45C267.493066,387.326764,269.726403,387.850466,272,388C273.98948,387.894504,275.94848,387.465551,277.8,386.73L277.4,386.25C276.615281,385.27479,275.770296,384.349648,274.87,383.48C273.941278,383.782432,272.975793,383.957364,272,384C270.185363,383.830476,268.407767,383.381861,266.73,382.67C263.56,381.56,259.98,380.29,256.99,382.02C254.51,383.45,253.58,386.22,252.99,389.02C253.7,388.85,254.37,388.73,255,388.61ZM263.56,432.31C263.07,431.73,262.56,431.14,262.07,430.6C261.09178,430.927442,260.029378,430.899111,259.07,430.52C257.59,429.67,257.07,426.94,256.61,424.31C256.344524,422.116767,255.712389,419.983736,254.74,418C253.676003,416.38539,252.343418,414.964868,250.8,413.8C250.71,414.06,250.61,414.33,250.52,414.6C250.110279,415.693671,249.759771,416.80862,249.47,417.94C250.168126,418.5372,250.777586,419.230839,251.28,420C251.994684,421.587059,252.466628,423.272574,252.68,425C253.29,428.37,253.99,432.18,257.06,434C259.49,435.4,262.32,434.83,265,434C264.49,433.4,264,432.85,263.58,432.31ZM298,400.93C297.8,401.54,297.59,402.14,297.39,402.73C297.1,403.53,296.82,404.35,296.59,405.13C297.391015,405.885112,297.89183,406.904501,298,408C298,409.83,295.84,411.65,293.75,413.4C292.025633,414.670635,290.53083,416.226313,289.33,418C288.443027,419.753547,287.854948,421.642836,287.59,423.59L288.31,423.46C289.506837,423.26151,290.691936,422.997784,291.86,422.67C292.040795,421.740125,292.353982,420.840977,292.79,420C293.776763,418.6481,294.963712,417.454407,296.31,416.46C299,414.23,302,411.7,302,408C302,405,300.11,402.84,298,400.93ZM289.08,427.39C288.29,427.54,287.48,427.69,286.73,427.86C286.516005,428.920517,285.922155,429.86641,285.06,430.52C283.68,431.32,281.13,430.42,278.66,429.52C276.539444,428.648166,274.288834,428.134513,272,428C270.01052,428.105496,268.05152,428.534449,266.2,429.27L266.6,429.75C267.384719,430.72521,268.229704,431.650352,269.13,432.52C270.058722,432.217568,271.024207,432.042636,272,432C273.814637,432.169524,275.592233,432.618139,277.27,433.33C279.299717,434.177421,281.45532,434.684224,283.65,434.83C284.820895,434.858775,285.977977,434.572095,287,434C289.49,432.57,290.42,429.8,291,427C290.38,427.15,289.71,427.27,289.06,427.39Z" stroke="none" stroke-width="1"/></clipPath><clipPath id="eQuiaXno1xk14"><path id="eQuiaXno1xk15" d="M246.1,400.94C245.23,398.26,244.65,395.42,246.1,392.99C247.88,389.92,251.69,389.22,255.1,388.61C256.827426,388.396628,258.512941,387.924684,260.1,387.21C260.871191,386.710263,261.565193,386.100484,262.16,385.4C263.29138,385.689771,264.406329,386.040279,265.5,386.45L266.31,386.73C265.139087,388.271522,263.715639,389.60368,262.1,390.67C260.116264,391.642389,257.983233,392.274524,255.79,392.54C253.16,393.02,250.44,393.54,249.58,395C249.188653,395.974221,249.160263,397.056603,249.5,398.05C248.96,398.55,248.37,399.05,247.79,399.54C247.21,400.03,246.64,400.45,246.1,400.94ZM266.77,382.67C267.57,382.96,268.39,383.24,269.17,383.47C269.905664,382.655362,270.910489,382.133421,272,382C273.84,382,275.65,384.16,277.4,386.25C278.670635,387.974367,280.226313,389.46917,282,390.67C283.753547,391.556973,285.642836,392.145052,287.59,392.41C287.59,392.17,287.5,391.93,287.46,391.69C287.263078,390.492022,286.995951,389.306647,286.66,388.14C285.733882,387.957107,284.838326,387.643999,284,387.21C282.6481,386.223237,281.454407,385.036288,280.46,383.69C278.27,381,275.74,378,272,378C269,378,266.84,379.93,264.93,382.06ZM291.43,391C291.58,391.79,291.73,392.59,291.9,393.35C292.960517,393.563995,293.90641,394.157845,294.56,395.02C295.36,396.4,294.46,398.95,293.56,401.42C292.683001,403.513049,292.155977,405.73601,292,408C292.105496,409.98948,292.534449,411.94848,293.27,413.8L293.75,413.4C294.72521,412.615281,295.650352,411.770296,296.52,410.87C296.217568,409.941278,296.042636,408.975793,296,408C296.169524,406.185363,296.618139,404.407767,297.33,402.73C298.44,399.56,299.71,395.97,297.98,392.99C296.54,390.51,293.78,389.58,290.98,388.99C291.19,389.66,291.31,390.33,291.43,391ZM296.35,416.48C295.77,416.97,295.18,417.48,294.64,417.96C294.980431,418.9567,294.952046,420.04245,294.56,421.02C293.71,422.5,290.98,423.02,288.35,423.48C286.156767,423.745476,284.023736,424.377611,282.04,425.35C280.42539,426.413997,279.004868,427.746582,277.84,429.29L278.64,429.57C279.740616,429.973644,280.862254,430.317479,282,430.6C282.5972,429.901874,283.290839,429.292414,284.06,428.79C285.647059,428.075316,287.332574,427.603372,289.06,427.39C292.43,426.78,296.24,426.08,298.06,423.01C299.47,420.58,298.89,417.75,298.06,415.07C297.44,415.55,296.89,416,296.35,416.46ZM277.35,433.35C276.55,433.06,275.74,432.78,274.95,432.54C274.184511,433.379336,273.131611,433.900432,272,434C270.17,434,268.36,431.84,266.6,429.75C265.329365,428.025633,263.773687,426.53083,262,425.33C260.246453,424.443027,258.357164,423.854948,256.41,423.59C256.46,423.83,256.5,424.07,256.54,424.31C256.736922,425.507978,257.004049,426.693353,257.34,427.86C258.266118,428.042893,259.161674,428.356001,260,428.79C261.3519,429.776763,262.545593,430.963712,263.54,432.31C265.81,435,268.34,438,272,438C275,438,277.16,436.07,279.07,433.94ZM252.65,425C252.5,424.21,252.35,423.41,252.18,422.65C251.119483,422.436005,250.17359,421.842155,249.52,420.98C248.72,419.6,249.62,417.05,250.52,414.58C251.369557,412.48227,251.869519,410.259468,252,408C251.894504,406.01052,251.465551,404.05152,250.73,402.2L250.25,402.6C249.274591,403.388061,248.34945,404.236386,247.48,405.14C247.783235,406.065086,247.958198,407.027381,248,408C247.830476,409.814637,247.381861,411.592233,246.67,413.27C245.56,416.44,244.29,420.03,246.02,423.01C247.45,425.49,250.22,426.42,253.02,427.01C252.89,426.34,252.77,425.67,252.65,425Z" stroke="none" stroke-width="1"/></clipPath></defs><g id="eQuiaXno1xk16" transform="matrix(1.300449 0 0 1.300449 -186.437851 -175.205884)"><g id="eQuiaXno1xk17"><g id="eQuiaXno1xk18_ts" transform="translate(413.025454,290) scale(1,1)"><path id="eQuiaXno1xk18" display="none" d="M41.953296,26.681249C21.418562,7.726704,-4.499952,40.816971,41.953296,65.262378C88.406543,40.816971,62.488029,7.726704,41.953296,26.681249Z" transform="translate(-41.953296,-43.162378)" fill="rgb(255,255,255)" stroke="none" stroke-width="1"/></g><g id="eQuiaXno1xk19_ts" transform="translate(413.025454,290) scale(1.079147,1.104767)"><path id="eQuiaXno1xk19" d="M41.930888,25.556325C21.671249,4.208457,-4.729244,43.174849,41.930888,64.289641C88.563234,43.162421,62.131106,4.207356,41.930888,25.556325Z" transform="translate(-41.953296,-43.162378)" opacity="0" fill="rgb(168,224,249)" stroke="none" stroke-width="1"/></g><g id="eQuiaXno1xk20_ts" transform="translate(413.025454,290) scale(1,1)"><path id="eQuiaXno1xk20" d="M41.953296,26.681249C21.418562,7.726704,-4.499952,40.816971,41.953296,65.262378C88.406543,40.816971,62.488029,7.726704,41.953296,26.681249Z" transform="translate(-41.953296,-43.162378)" fill="rgb(255,255,255)" stroke="rgb(66,165,208)" stroke-width="8" stroke-linecap="round" stroke-linejoin="round"/></g><g id="eQuiaXno1xk21_ts" transform="translate(413.025454,290) scale(1,1)"><path id="eQuiaXno1xk21" d="M41.953296,26.681249C21.418562,7.726704,-4.499952,40.816971,41.953296,65.262378C88.406543,40.816971,62.488029,7.726704,41.953296,26.681249Z" transform="translate(-41.953296,-43.162378)" fill="rgb(255,255,255)" stroke="none" stroke-width="1"/></g></g><polyline id="eQuiaXno1xk22" points="15.697164,49.808024 41.76519,49.804213 47.530245,37.028481 55.011875,62.005614 60.960682,49.808024 86.740047,49.808024" transform="matrix(1 0 0 1 361.283431 243.195787)" fill="none" stroke="rgb(42,53,77)" stroke-width="4" stroke-linecap="round" stroke-linejoin="round" stroke-dashoffset="105.51" stroke-dasharray="105.51"/></g></svg>